<svg xmlns="http://www.w3.org/2000/svg" version="1.1" xmlns:xlink="http://www.w3.org/1999/xlink" xmlns:svgjs="http://svgjs.dev/svgjs" width="1000" height="1000" viewBox="0 0 1000 1000"><rect width="1000" height="1000" fill="#000000"></rect><g transform="matrix(0.7,0,0,0.7,149.57575757575756,282.1265587044535)"><svg viewBox="0 0 396 247" data-background-color="#333366" preserveAspectRatio="xMidYMid meet" height="623" width="1000" xmlns="http://www.w3.org/2000/svg" xmlns:xlink="http://www.w3.org/1999/xlink"><g id="tight-bounds" transform="matrix(1,0,0,1,0.2400000000000091,-0.09999999999999432)"><svg viewBox="0 0 395.52 247.2" height="247.2" width="395.52"><g><svg></svg></g><g><svg viewBox="0 0 395.52 247.2" height="247.2" width="395.52"><g transform="matrix(1,0,0,1,75.54432,72.36599344683586)"><svg viewBox="0 0 244.43135999999998 102.46801310632829" height="102.46801310632829" width="244.43135999999998"><g><svg viewBox="0 0 244.43135999999998 102.46801310632829" height="102.46801310632829" width="244.43135999999998"><g><svg viewBox="0 0 244.43135999999998 102.46801310632829" height="102.46801310632829" width="244.43135999999998"><g><svg viewBox="0 0 244.43135999999998 102.46801310632829" height="102.46801310632829" width="244.43135999999998"><g><svg viewBox="0 0 244.43135999999998 102.46801310632829" height="102.46801310632829" width="244.43135999999998"><g><svg viewBox="0 0 244.43135999999998 102.46801310632829" height="102.46801310632829" width="244.43135999999998"><g transform="matrix(1,0,0,1,0,0)"><svg width="244.43135999999998" viewBox="1.2000000476837158 -31.860000610351562 75.99000549316406 31.860000610351562" height="102.46801310632829" data-palette-color="#ffff33"><path d="M21.56-31.86L21.56 0 18.19 0 18.19-26.54 12.55-10.11 10.16-10.11 4.54-26.54 4.54 0 1.2 0 1.2-31.86 5.54-31.86 11.35-15.21 17.21-31.86 21.56-31.86ZM37.4-17.94L49.9 0 45.8 0 35.2-15.6 31.83-11.84 31.83 0 28.49 0 28.49-31.86 31.83-31.86 31.83-16.36 45.48-31.86 49.9-31.86 37.4-17.94ZM64.69-17.94L77.19 0 73.09 0 62.5-15.6 59.13-11.84 59.13 0 55.78 0 55.78-31.86 59.13-31.86 59.13-16.36 72.77-31.86 77.19-31.86 64.69-17.94Z" opacity="1" transform="matrix(1,0,0,1,0,0)" fill="#ffffff" class="undefined-text-0" data-fill-palette-color="primary" id="text-0"></path></svg></g></svg></g></svg></g></svg></g></svg></g></svg></g></svg></g><path d="M227.957 66.366L227.957 15.303 11.363 15.303 11.363 231.897 227.957 231.897 227.957 180.834 218.716 180.834 218.716 222.656 20.603 222.656 20.603 24.544 218.716 24.544 218.716 66.366Z" fill="#ffffff" stroke="transparent" data-fill-palette-color="primary"></path></svg></g><defs></defs></svg><rect width="395.52" height="247.2" fill="none" stroke="none" visibility="hidden"></rect></g></svg></g></svg>